<svg width="155" height="91" viewBox="0 0 155 91" fill="none" xmlns="http://www.w3.org/2000/svg">
<path d="M17.6 79.64C26.048 79.64 31.104 74.456 31.104 63.896V46.104C31.104 35.608 26.048 30.36 17.6 30.36C9.216 30.36 4.096 35.608 4.096 46.104V63.896C4.096 74.456 9.216 79.64 17.6 79.64ZM17.6 73.752C13.12 73.752 10.496 71.128 10.496 63.896V46.104C10.496 38.936 13.184 36.248 17.6 36.248C22.016 36.248 24.704 38.936 24.704 46.104V63.896C24.704 71.128 22.016 73.752 17.6 73.752ZM52.7875 79.64C61.2355 79.64 66.2915 74.456 66.2915 63.896V46.104C66.2915 35.608 61.2355 30.36 52.7875 30.36C44.4035 30.36 39.2835 35.608 39.2835 46.104V63.896C39.2835 74.456 44.4035 79.64 52.7875 79.64ZM52.7875 73.752C48.3075 73.752 45.6835 71.128 45.6835 63.896V46.104C45.6835 38.936 48.3715 36.248 52.7875 36.248C57.2035 36.248 59.8915 38.936 59.8915 46.104V63.896C59.8915 71.128 57.2035 73.752 52.7875 73.752ZM77.159 79.64C79.719 79.64 81.447 77.784 81.447 75.416C81.447 72.984 79.719 71.128 77.159 71.128C74.727 71.128 72.935 72.984 72.935 75.416C72.935 77.784 74.727 79.64 77.159 79.64ZM101.6 79.64C110.048 79.64 115.104 74.456 115.104 63.896V46.104C115.104 35.608 110.048 30.36 101.6 30.36C93.216 30.36 88.096 35.608 88.096 46.104V63.896C88.096 74.456 93.216 79.64 101.6 79.64ZM101.6 73.752C97.12 73.752 94.496 71.128 94.496 63.896V46.104C94.496 38.936 97.184 36.248 101.6 36.248C106.016 36.248 108.704 38.936 108.704 46.104V63.896C108.704 71.128 106.016 73.752 101.6 73.752ZM136.788 79.64C145.236 79.64 150.292 74.456 150.292 63.896V46.104C150.292 35.608 145.236 30.36 136.788 30.36C128.404 30.36 123.284 35.608 123.284 46.104V63.896C123.284 74.456 128.404 79.64 136.788 79.64ZM136.788 73.752C132.308 73.752 129.684 71.128 129.684 63.896V46.104C129.684 38.936 132.372 36.248 136.788 36.248C141.204 36.248 143.892 38.936 143.892 46.104V63.896C143.892 71.128 141.204 73.752 136.788 73.752Z" fill="white"/>
<path d="M45.24 17.408V22H46.84V17.408C46.84 15.968 47.496 15.248 48.584 15.248C49.656 15.248 50.296 15.968 50.296 17.408V22H51.896V17.088C51.896 14.896 50.696 13.84 49.08 13.84C47.928 13.84 47 14.384 46.536 15.424C46.072 14.352 45.144 13.84 44.008 13.84C43.048 13.84 42.248 14.288 41.784 15.12V14H40.184V22H41.784V17.408C41.784 15.968 42.44 15.248 43.512 15.248C44.584 15.248 45.24 15.968 45.24 17.408ZM54.984 12.256C55.608 12.256 56.04 11.792 56.04 11.184C56.04 10.576 55.608 10.128 54.984 10.128C54.376 10.128 53.928 10.576 53.928 11.184C53.928 11.792 54.376 12.256 54.984 12.256ZM55.784 22V14H54.184V22H55.784ZM63.6248 17.632V22H65.2248V17.312C65.2248 14.96 63.9288 13.84 62.1848 13.84C61.1288 13.84 60.2488 14.336 59.7528 15.264V14H58.1528V22H59.7528V17.632C59.7528 16.048 60.4888 15.248 61.6888 15.248C62.8888 15.248 63.6248 16.048 63.6248 17.632Z" fill="white"/>
<path d="M131.36 19.744C131.36 16.48 126.48 17.904 126.48 16.128C126.48 15.488 127.056 15.12 127.92 15.12C128.848 15.12 129.536 15.68 129.536 16.448H131.2C131.2 14.976 129.792 13.84 127.92 13.84C126.192 13.84 124.864 14.736 124.864 16.192C124.864 19.408 129.712 17.872 129.712 19.808C129.712 20.528 129.136 20.896 128.16 20.896C127.136 20.896 126.368 20.4 126.368 19.424H124.704C124.704 21.168 126.192 22.16 128.16 22.16C130.016 22.16 131.36 21.248 131.36 19.744ZM140.495 18.544C140.51 18.368 140.527 18.192 140.527 18C140.527 15.552 138.863 13.84 136.591 13.84C134.319 13.84 132.655 15.552 132.655 18C132.655 20.448 134.319 22.16 136.591 22.16C138.431 22.16 139.823 21.248 140.319 19.6H138.591C138.271 20.32 137.631 20.752 136.655 20.752C135.311 20.752 134.414 19.936 134.223 18.544H140.495ZM136.591 15.248C137.871 15.248 138.751 16.048 138.943 17.392H134.239C134.431 16.048 135.295 15.248 136.591 15.248ZM143.909 10H142.309V22H143.909V17.792L147.733 22H149.765L145.717 17.648L149.477 14H147.349L143.909 17.552V10Z" fill="white"/>
</svg>
